<?xml version="1.0" encoding="UTF-8"?>
<svg width="800px" height="600px" viewBox="0 0 800 600" version="1.1" xmlns="http://www.w3.org/2000/svg">
    <g stroke="none" stroke-width="1" fill="none" fill-rule="evenodd">
        <g transform="translate(0, 0)">
            <path d="M400,300 C400,465.685425 265.685425,600 100,600 C-65.685425,600 -200,465.685425 -200,300 C-200,134.314575 -65.685425,0 100,0 C265.685425,0 400,134.314575 400,300 Z" fill="#FFFFFF" fill-opacity="0.1"></path>
            <path d="M400,300 C400,465.685425 265.685425,600 100,600 C-65.685425,600 -200,465.685425 -200,300 C-200,134.314575 -65.685425,0 100,0 C265.685425,0 400,134.314575 400,300 Z" stroke="#FFFFFF" stroke-width="2" stroke-dasharray="4,4"></path>
        </g>
        <g transform="translate(200, 150)">
            <path d="M200,150 C200,232.843145 132.843145,300 50,300 C-32.843145,300 -100,232.843145 -100,150 C-100,67.1568545 -32.843145,0 50,0 C132.843145,0 200,67.1568545 200,150 Z" fill="#FFFFFF" fill-opacity="0.1"></path>
            <path d="M200,150 C200,232.843145 132.843145,300 50,300 C-32.843145,300 -100,232.843145 -100,150 C-100,67.1568545 -32.843145,0 50,0 C132.843145,0 200,67.1568545 200,150 Z" stroke="#FFFFFF" stroke-width="2" stroke-dasharray="4,4"></path>
        </g>
        <g transform="translate(300, 300)">
            <path d="M150,150 C150,232.843145 82.843145,300 0,300 C-82.843145,300 -150,232.843145 -150,150 C-150,67.1568545 -82.843145,0 0,0 C82.843145,0 150,67.1568545 150,150 Z" fill="#FFFFFF" fill-opacity="0.1"></path>
            <path d="M150,150 C150,232.843145 82.843145,300 0,300 C-82.843145,300 -150,232.843145 -150,150 C-150,67.1568545 -82.843145,0 0,0 C82.843145,0 150,67.1568545 150,150 Z" stroke="#FFFFFF" stroke-width="2" stroke-dasharray="4,4"></path>
        </g>
        <g transform="translate(400, 200)">
            <path d="M100,100 C100,155.228475 55.228475,200 0,200 C-55.228475,200 -100,155.228475 -100,100 C-100,44.7715247 -55.228475,0 0,0 C55.228475,0 100,44.7715247 100,100 Z" fill="#FFFFFF" fill-opacity="0.1"></path>
            <path d="M100,100 C100,155.228475 55.228475,200 0,200 C-55.228475,200 -100,155.228475 -100,100 C-100,44.7715247 -55.228475,0 0,0 C55.228475,0 100,44.7715247 100,100 Z" stroke="#FFFFFF" stroke-width="2" stroke-dasharray="4,4"></path>
        </g>
        <g transform="translate(200, 400)">
            <path d="M150,150 C150,232.843145 82.843145,300 0,300 C-82.843145,300 -150,232.843145 -150,150 C-150,67.1568545 -82.843145,0 0,0 C82.843145,0 150,67.1568545 150,150 Z" fill="#FFFFFF" fill-opacity="0.1"></path>
            <path d="M150,150 C150,232.843145 82.843145,300 0,300 C-82.843145,300 -150,232.843145 -150,150 C-150,67.1568545 -82.843145,0 0,0 C82.843145,0 150,67.1568545 150,150 Z" stroke="#FFFFFF" stroke-width="2" stroke-dasharray="4,4"></path>
        </g>
    </g>
</svg> 